REM DIRINDEX 1\2,1\3,1\4,1\5
REM DIRNAME folder01,folder02,folder03,folder04,folder05
TITLE ""
FILE "1800_163.mp3" MP3
  TRACK 01 AUDIO
    TITLE "2:cjc044_5334"
    INDEX 01 00:00:00
  TRACK 02 AUDIO
    TITLE "0:"
    INDEX 01 00:01:01
  TRACK 03 AUDIO
    TITLE "3:cjc044_5335"
    INDEX 01 00:01:44
  TRACK 04 AUDIO
    TITLE "0:"
    INDEX 01 00:02:73
  TRACK 05 AUDIO
    TITLE "4:cjc044_5336"
    INDEX 01 00:03:45
  TRACK 06 AUDIO
    TITLE "0:"
    INDEX 01 00:04:58
  TRACK 07 AUDIO
    TITLE "2:cjc044_5337"
    INDEX 01 00:06:28
  TRACK 08 AUDIO
    TITLE "0:"
    INDEX 01 00:07:52
  TRACK 09 AUDIO
    TITLE "3:cjc044_5338"
    INDEX 01 00:08:26
  TRACK 10 AUDIO
    TITLE "0:"
    INDEX 01 00:09:40
  TRACK 11 AUDIO
    TITLE "4:cjc044_5339"
    INDEX 01 00:10:10
  TRACK 12 AUDIO
    TITLE "0:"
    INDEX 01 00:11:37
  TRACK 13 AUDIO
    TITLE "2:cjc044_5340"
    INDEX 01 00:13:10
  TRACK 14 AUDIO
    TITLE "0:"
    INDEX 01 00:14:43
  TRACK 15 AUDIO
    TITLE "3:cjc044_5341"
    INDEX 01 00:15:11
  TRACK 16 AUDIO
    TITLE "0:"
    INDEX 01 00:16:28
  TRACK 17 AUDIO
    TITLE "4:cjc044_5342"
    INDEX 01 00:17:00
  TRACK 18 AUDIO
    TITLE "0:"
    INDEX 01 00:18:31
  TRACK 19 AUDIO
    TITLE "2:cjc044_5343"
    INDEX 01 00:20:02
  TRACK 20 AUDIO
    TITLE "0:"
    INDEX 01 00:21:17
  TRACK 21 AUDIO
    TITLE "3:cjc044_5344"
    INDEX 01 00:21:64
  TRACK 22 AUDIO
    TITLE "0:"
    INDEX 01 00:22:68
  TRACK 23 AUDIO
    TITLE "4:cjc044_5345"
    INDEX 01 00:23:38
  TRACK 24 AUDIO
    TITLE "0:"
    INDEX 01 00:24:53
  TRACK 25 AUDIO
    TITLE "2:cjc044_5346"
    INDEX 01 00:26:24
  TRACK 26 AUDIO
    TITLE "0:"
    INDEX 01 00:27:43
  TRACK 27 AUDIO
    TITLE "3:cjc044_5347"
    INDEX 01 00:28:19
  TRACK 28 AUDIO
    TITLE "0:"
    INDEX 01 00:29:13
  TRACK 29 AUDIO
    TITLE "4:cjc044_5348"
    INDEX 01 00:29:62
  TRACK 30 AUDIO
    TITLE "0:"
    INDEX 01 00:31:08
  TRACK 31 AUDIO
    TITLE "2:cjc044_5349"
    INDEX 01 00:32:60
  TRACK 32 AUDIO
    TITLE "0:"
    INDEX 01 00:34:04
  TRACK 33 AUDIO
    TITLE "3:cjc044_5350"
    INDEX 01 00:34:51
  TRACK 34 AUDIO
    TITLE "0:"
    INDEX 01 00:36:01
  TRACK 35 AUDIO
    TITLE "4:cjc044_5351"
    INDEX 01 00:36:52
  TRACK 36 AUDIO
    TITLE "0:"
    INDEX 01 00:37:71
  TRACK 37 AUDIO
    TITLE "2:cjc044_5352"
    INDEX 01 00:39:43
  TRACK 38 AUDIO
    TITLE "0:"
    INDEX 01 00:40:68
  TRACK 39 AUDIO
    TITLE "3:cjc044_5353"
    INDEX 01 00:41:40
  TRACK 40 AUDIO
    TITLE "0:"
    INDEX 01 00:43:17
  TRACK 41 AUDIO
    TITLE "4:cjc044_5354"
    INDEX 01 00:43:64
  TRACK 42 AUDIO
    TITLE "0:"
    INDEX 01 00:45:16
  TRACK 43 AUDIO
    TITLE "2:cjc044_5355"
    INDEX 01 00:46:62
  TRACK 44 AUDIO
    TITLE "0:"
    INDEX 01 00:48:00
  TRACK 45 AUDIO
    TITLE "3:cjc044_5356"
    INDEX 01 00:48:48
  TRACK 46 AUDIO
    TITLE "0:"
    INDEX 01 00:50:25
  TRACK 47 AUDIO
    TITLE "4:cjc044_5357"
    INDEX 01 00:50:72
  TRACK 48 AUDIO
    TITLE "0:"
    INDEX 01 00:52:10
  TRACK 49 AUDIO
    TITLE "2:cjc044_5358"
    INDEX 01 00:53:58
  TRACK 50 AUDIO
    TITLE "0:"
    INDEX 01 00:54:70
  TRACK 51 AUDIO
    TITLE "3:cjc044_5359"
    INDEX 01 00:55:44
  TRACK 52 AUDIO
    TITLE "0:"
    INDEX 01 00:56:67
  TRACK 53 AUDIO
    TITLE "4:cjc044_5360"
    INDEX 01 00:57:41
  TRACK 54 AUDIO
    TITLE "0:"
    INDEX 01 00:58:52
  TRACK 55 AUDIO
    TITLE "2:cjc044_5361"
    INDEX 01 01:00:35
  TRACK 56 AUDIO
    TITLE "0:"
    INDEX 01 01:01:50
  TRACK 57 AUDIO
    TITLE "3:cjc044_5362"
    INDEX 01 01:02:26
  TRACK 58 AUDIO
    TITLE "0:"
    INDEX 01 01:03:20
  TRACK 59 AUDIO
    TITLE "4:cjc044_5363"
    INDEX 01 01:03:65
  TRACK 60 AUDIO
    TITLE "0:"
    INDEX 01 01:05:07
  TRACK 61 AUDIO
    TITLE "2:cjc044_5364"
    INDEX 01 01:06:55
  TRACK 62 AUDIO
    TITLE "0:"
    INDEX 01 01:07:74
  TRACK 63 AUDIO
    TITLE "3:cjc044_5365"
    INDEX 01 01:08:46
  TRACK 64 AUDIO
    TITLE "0:"
    INDEX 01 01:09:73
  TRACK 65 AUDIO
    TITLE "4:cjc044_5366"
    INDEX 01 01:10:45
  TRACK 66 AUDIO
    TITLE "0:"
    INDEX 01 01:11:64
  TRACK 67 AUDIO
    TITLE "2:cjc044_5367"
    INDEX 01 01:13:36
  TRACK 68 AUDIO
    TITLE "0:"
    INDEX 01 01:15:01
  TRACK 69 AUDIO
    TITLE "3:cjc044_5368"
    INDEX 01 01:15:46
  TRACK 70 AUDIO
    TITLE "0:"
    INDEX 01 01:17:16
  TRACK 71 AUDIO
    TITLE "4:cjc044_5369"
    INDEX 01 01:17:61
  TRACK 72 AUDIO
    TITLE "0:"
    INDEX 01 01:19:25
  TRACK 73 AUDIO
    TITLE "2:cjc044_5370"
    INDEX 01 01:20:73
  TRACK 74 AUDIO
    TITLE "0:"
    INDEX 01 01:21:70
  TRACK 75 AUDIO
    TITLE "3:cjc044_5371"
    INDEX 01 01:22:42
  TRACK 76 AUDIO
    TITLE "0:"
    INDEX 01 01:23:52
  TRACK 77 AUDIO
    TITLE "4:cjc044_5372"
    INDEX 01 01:24:28
  TRACK 78 AUDIO
    TITLE "0:"
    INDEX 01 01:25:25
  TRACK 79 AUDIO
    TITLE "2:cjc044_5373"
    INDEX 01 01:26:72
  TRACK 80 AUDIO
    TITLE "0:"
    INDEX 01 01:28:25
  TRACK 81 AUDIO
    TITLE "3:cjc044_5374"
    INDEX 01 01:28:72
  TRACK 82 AUDIO
    TITLE "0:"
    INDEX 01 01:30:22
  TRACK 83 AUDIO
    TITLE "4:cjc044_5375"
    INDEX 01 01:30:67
  TRACK 84 AUDIO
    TITLE "0:"
    INDEX 01 01:32:25
  TRACK 85 AUDIO
    TITLE "2:cjc044_5376"
    INDEX 01 01:33:74
  TRACK 86 AUDIO
    TITLE "0:"
    INDEX 01 01:35:22
  TRACK 87 AUDIO
    TITLE "3:cjc044_5377"
    INDEX 01 01:35:71
  TRACK 88 AUDIO
    TITLE "0:"
    INDEX 01 01:37:13
  TRACK 89 AUDIO
    TITLE "4:cjc044_5378"
    INDEX 01 01:37:64
  TRACK 90 AUDIO
    TITLE "0:"
    INDEX 01 01:39:15
